<mxfile host="app.diagrams.net" modified="2022-08-15T11:48:39.324Z" agent="5.0 (Macintosh; Intel Mac OS X 10_15_7) AppleWebKit/537.36 (KHTML, like Gecko) Chrome/104.0.0.0 Safari/537.36" etag="uoCnYvDdNlbJql7TiLtN" version="20.2.3" type="github">
  <diagram name="Page-1" id="74e2e168-ea6b-b213-b513-2b3c1d86103e">
    <mxGraphModel dx="958" dy="766" grid="1" gridSize="10" guides="1" tooltips="1" connect="1" arrows="1" fold="1" page="1" pageScale="1" pageWidth="1100" pageHeight="850" background="none" math="0" shadow="0">
      <root>
        <mxCell id="0" />
        <mxCell id="1" parent="0" />
        <mxCell id="_fLrk6CSsLSFE7OZdIQK-15" value="视频匹配状态过程" style="swimlane;childLayout=stackLayout;resizeParent=1;resizeParentMax=0;startSize=20;" vertex="1" parent="1">
          <mxGeometry x="100" y="30" width="510" height="670" as="geometry" />
        </mxCell>
        <mxCell id="_fLrk6CSsLSFE7OZdIQK-16" value="男" style="swimlane;startSize=20;" vertex="1" parent="_fLrk6CSsLSFE7OZdIQK-15">
          <mxGeometry y="20" width="190" height="650" as="geometry" />
        </mxCell>
        <mxCell id="_fLrk6CSsLSFE7OZdIQK-21" value="" style="rounded=0;whiteSpace=wrap;html=1;" vertex="1" parent="_fLrk6CSsLSFE7OZdIQK-16">
          <mxGeometry x="30" y="50" width="120" height="60" as="geometry" />
        </mxCell>
        <mxCell id="_fLrk6CSsLSFE7OZdIQK-17" value="状态" style="swimlane;startSize=20;" vertex="1" parent="_fLrk6CSsLSFE7OZdIQK-15">
          <mxGeometry x="190" y="20" width="120" height="650" as="geometry" />
        </mxCell>
        <mxCell id="_fLrk6CSsLSFE7OZdIQK-18" value="女" style="swimlane;startSize=20;" vertex="1" parent="_fLrk6CSsLSFE7OZdIQK-15">
          <mxGeometry x="310" y="20" width="200" height="650" as="geometry" />
        </mxCell>
      </root>
    </mxGraphModel>
  </diagram>
</mxfile>
